<svg width="97" height="100" viewBox="0 0 97 100" fill="none" xmlns="http://www.w3.org/2000/svg">
<path d="M48.5 0C21.631 0 0 22.3 0 50C0 77.7 21.631 100 48.5 100C75.369 100 97 77.7 97 50C97 22.3 75.369 0 48.5 0ZM48.5 87.5C28.324 87.5 12.125 70.8 12.125 50C12.125 29.2 28.324 12.5 48.5 12.5C68.676 12.5 84.875 29.2 84.875 50C84.875 70.8 68.676 87.5 48.5 87.5Z" fill="white"/>
<path d="M50 37.7C53.5 37.7 56.2 35 56.2 31.5C56.2 28 53.5 25.3 50 25.3C46.5 25.3 43.8 28 43.8 31.5C43.8 35 46.5 37.7 50 37.7Z" fill="white"/>
<path d="M58.3 62.5C57.1 62.5 56.2 61.7 56.2 60.6V44C56.2 42.8 55.2 41.7 54.1 41.7H41.7C40.5 41.7 39.6 42.9 39.6 44V48.2C39.6 49.5 40.6 50.1 41.7 50.1C42.9 50.1 43.8 51.3 43.8 52.4V60.7C43.8 62 42.8 62.6 41.7 62.6C40.5 62.6 39.6 63.8 39.6 64.9V69C39.6 70.3 40.6 70.9 41.7 70.9H58.4C59.6 70.9 60.5 70.1 60.5 69V64.8C60.4 63.5 59.4 62.5 58.3 62.5Z" fill="white"/>
</svg>
