<svg width="282" height="282" viewBox="0 0 282 282" fill="none" xmlns="http://www.w3.org/2000/svg">
<path d="M16 16H24.6207V24.6207H16V16ZM24.6207 16H33.2414V24.6207H24.6207V16ZM33.2414 16H41.8621V24.6207H33.2414V16ZM41.8621 16H50.4828V24.6207H41.8621V16ZM50.4828 16H59.1034V24.6207H50.4828V16ZM59.1034 16H67.7241V24.6207H59.1034V16ZM67.7241 16H76.3448V24.6207H67.7241V16ZM128.069 16H136.69V24.6207H128.069V16ZM136.69 16H145.31V24.6207H136.69V16ZM145.31 16H153.931V24.6207H145.31V16ZM153.931 16H162.552V24.6207H153.931V16ZM171.172 16H179.793V24.6207H171.172V16ZM205.655 16H214.276V24.6207H205.655V16ZM214.276 16H222.897V24.6207H214.276V16ZM222.897 16H231.517V24.6207H222.897V16ZM231.517 16H240.138V24.6207H231.517V16ZM240.138 16H248.759V24.6207H240.138V16ZM248.759 16H257.379V24.6207H248.759V16ZM257.379 16H266V24.6207H257.379V16ZM16 24.6207H24.6207V33.2414H16V24.6207ZM67.7241 24.6207H76.3448V33.2414H67.7241V24.6207ZM84.9655 24.6207H93.5862V33.2414H84.9655V24.6207ZM93.5862 24.6207H102.207V33.2414H93.5862V24.6207ZM102.207 24.6207H110.828V33.2414H102.207V24.6207ZM110.828 24.6207H119.448V33.2414H110.828V24.6207ZM119.448 24.6207H128.069V33.2414H119.448V24.6207ZM153.931 24.6207H162.552V33.2414H153.931V24.6207ZM171.172 24.6207H179.793V33.2414H171.172V24.6207ZM179.793 24.6207H188.414V33.2414H179.793V24.6207ZM205.655 24.6207H214.276V33.2414H205.655V24.6207ZM257.379 24.6207H266V33.2414H257.379V24.6207ZM16 33.2414H24.6207V41.8621H16V33.2414ZM33.2414 33.2414H41.8621V41.8621H33.2414V33.2414ZM41.8621 33.2414H50.4828V41.8621H41.8621V33.2414ZM50.4828 33.2414H59.1034V41.8621H50.4828V33.2414ZM67.7241 33.2414H76.3448V41.8621H67.7241V33.2414ZM102.207 33.2414H110.828V41.8621H102.207V33.2414ZM128.069 33.2414H136.69V41.8621H128.069V33.2414ZM136.69 33.2414H145.31V41.8621H136.69V33.2414ZM145.31 33.2414H153.931V41.8621H145.31V33.2414ZM188.414 33.2414H197.034V41.8621H188.414V33.2414ZM205.655 33.2414H214.276V41.8621H205.655V33.2414ZM222.897 33.2414H231.517V41.8621H222.897V33.2414ZM231.517 33.2414H240.138V41.8621H231.517V33.2414ZM240.138 33.2414H248.759V41.8621H240.138V33.2414ZM257.379 33.2414H266V41.8621H257.379V33.2414ZM16 41.8621H24.6207V50.4828H16V41.8621ZM33.2414 41.8621H41.8621V50.4828H33.2414V41.8621ZM41.8621 41.8621H50.4828V50.4828H41.8621V41.8621ZM50.4828 41.8621H59.1034V50.4828H50.4828V41.8621ZM67.7241 41.8621H76.3448V50.4828H67.7241V41.8621ZM84.9655 41.8621H93.5862V50.4828H84.9655V41.8621ZM102.207 41.8621H110.828V50.4828H102.207V41.8621ZM110.828 41.8621H119.448V50.4828H110.828V41.8621ZM128.069 41.8621H136.69V50.4828H128.069V41.8621ZM136.69 41.8621H145.31V50.4828H136.69V41.8621ZM145.31 41.8621H153.931V50.4828H145.31V41.8621ZM153.931 41.8621H162.552V50.4828H153.931V41.8621ZM162.552 41.8621H171.172V50.4828H162.552V41.8621ZM179.793 41.8621H188.414V50.4828H179.793V41.8621ZM188.414 41.8621H197.034V50.4828H188.414V41.8621ZM205.655 41.8621H214.276V50.4828H205.655V41.8621ZM222.897 41.8621H231.517V50.4828H222.897V41.8621ZM231.517 41.8621H240.138V50.4828H231.517V41.8621ZM240.138 41.8621H248.759V50.4828H240.138V41.8621ZM257.379 41.8621H266V50.4828H257.379V41.8621ZM16 50.4828H24.6207V59.1034H16V50.4828ZM33.2414 50.4828H41.8621V59.1034H33.2414V50.4828ZM41.8621 50.4828H50.4828V59.1034H41.8621V50.4828ZM50.4828 50.4828H59.1034V59.1034H50.4828V50.4828ZM67.7241 50.4828H76.3448V59.1034H67.7241V50.4828ZM84.9655 50.4828H93.5862V59.1034H84.9655V50.4828ZM102.207 50.4828H110.828V59.1034H102.207V50.4828ZM119.448 50.4828H128.069V59.1034H119.448V50.4828ZM128.069 50.4828H136.69V59.1034H128.069V50.4828ZM145.31 50.4828H153.931V59.1034H145.31V50.4828ZM153.931 50.4828H162.552V59.1034H153.931V50.4828ZM162.552 50.4828H171.172V59.1034H162.552V50.4828ZM179.793 50.4828H188.414V59.1034H179.793V50.4828ZM205.655 50.4828H214.276V59.1034H205.655V50.4828ZM222.897 50.4828H231.517V59.1034H222.897V50.4828ZM231.517 50.4828H240.138V59.1034H231.517V50.4828ZM240.138 50.4828H248.759V59.1034H240.138V50.4828ZM257.379 50.4828H266V59.1034H257.379V50.4828ZM16 59.1034H24.6207V67.7241H16V59.1034ZM67.7241 59.1034H76.3448V67.7241H67.7241V59.1034ZM102.207 59.1034H110.828V67.7241H102.207V59.1034ZM119.448 59.1034H128.069V67.7241H119.448V59.1034ZM128.069 59.1034H136.69V67.7241H128.069V59.1034ZM136.69 59.1034H145.31V67.7241H136.69V59.1034ZM145.31 59.1034H153.931V67.7241H145.31V59.1034ZM153.931 59.1034H162.552V67.7241H153.931V59.1034ZM205.655 59.1034H214.276V67.7241H205.655V59.1034ZM257.379 59.1034H266V67.7241H257.379V59.1034ZM16 67.7241H24.6207V76.3448H16V67.7241ZM24.6207 67.7241H33.2414V76.3448H24.6207V67.7241ZM33.2414 67.7241H41.8621V76.3448H33.2414V67.7241ZM41.8621 67.7241H50.4828V76.3448H41.8621V67.7241ZM50.4828 67.7241H59.1034V76.3448H50.4828V67.7241ZM59.1034 67.7241H67.7241V76.3448H59.1034V67.7241ZM67.7241 67.7241H76.3448V76.3448H67.7241V67.7241ZM84.9655 67.7241H93.5862V76.3448H84.9655V67.7241ZM102.207 67.7241H110.828V76.3448H102.207V67.7241ZM119.448 67.7241H128.069V76.3448H119.448V67.7241ZM136.69 67.7241H145.31V76.3448H136.69V67.7241ZM153.931 67.7241H162.552V76.3448H153.931V67.7241ZM171.172 67.7241H179.793V76.3448H171.172V67.7241ZM188.414 67.7241H197.034V76.3448H188.414V67.7241ZM205.655 67.7241H214.276V76.3448H205.655V67.7241ZM214.276 67.7241H222.897V76.3448H214.276V67.7241ZM222.897 67.7241H231.517V76.3448H222.897V67.7241ZM231.517 67.7241H240.138V76.3448H231.517V67.7241ZM240.138 67.7241H248.759V76.3448H240.138V67.7241ZM248.759 67.7241H257.379V76.3448H248.759V67.7241ZM257.379 67.7241H266V76.3448H257.379V67.7241ZM84.9655 76.3448H93.5862V84.9655H84.9655V76.3448ZM110.828 76.3448H119.448V84.9655H110.828V76.3448ZM128.069 76.3448H136.69V84.9655H128.069V76.3448ZM136.69 76.3448H145.31V84.9655H136.69V76.3448ZM179.793 76.3448H188.414V84.9655H179.793V76.3448ZM188.414 76.3448H197.034V84.9655H188.414V76.3448ZM24.6207 84.9655H33.2414V93.5862H24.6207V84.9655ZM41.8621 84.9655H50.4828V93.5862H41.8621V84.9655ZM50.4828 84.9655H59.1034V93.5862H50.4828V84.9655ZM59.1034 84.9655H67.7241V93.5862H59.1034V84.9655ZM67.7241 84.9655H76.3448V93.5862H67.7241V84.9655ZM84.9655 84.9655H93.5862V93.5862H84.9655V84.9655ZM119.448 84.9655H128.069V93.5862H119.448V84.9655ZM136.69 84.9655H145.31V93.5862H136.69V84.9655ZM162.552 84.9655H171.172V93.5862H162.552V84.9655ZM197.034 84.9655H205.655V93.5862H197.034V84.9655ZM205.655 84.9655H214.276V93.5862H205.655V84.9655ZM222.897 84.9655H231.517V93.5862H222.897V84.9655ZM231.517 84.9655H240.138V93.5862H231.517V84.9655ZM248.759 84.9655H257.379V93.5862H248.759V84.9655ZM33.2414 93.5862H41.8621V102.207H33.2414V93.5862ZM50.4828 93.5862H59.1034V102.207H50.4828V93.5862ZM59.1034 93.5862H67.7241V102.207H59.1034V93.5862ZM76.3448 93.5862H84.9655V102.207H76.3448V93.5862ZM93.5862 93.5862H102.207V102.207H93.5862V93.5862ZM110.828 93.5862H119.448V102.207H110.828V93.5862ZM136.69 93.5862H145.31V102.207H136.69V93.5862ZM171.172 93.5862H179.793V102.207H171.172V93.5862ZM179.793 93.5862H188.414V102.207H179.793V93.5862ZM197.034 93.5862H205.655V102.207H197.034V93.5862ZM214.276 93.5862H222.897V102.207H214.276V93.5862ZM222.897 93.5862H231.517V102.207H222.897V93.5862ZM248.759 93.5862H257.379V102.207H248.759V93.5862ZM24.6207 102.207H33.2414V110.828H24.6207V102.207ZM33.2414 102.207H41.8621V110.828H33.2414V102.207ZM50.4828 102.207H59.1034V110.828H50.4828V102.207ZM67.7241 102.207H76.3448V110.828H67.7241V102.207ZM76.3448 102.207H84.9655V110.828H76.3448V102.207ZM84.9655 102.207H93.5862V110.828H84.9655V102.207ZM93.5862 102.207H102.207V110.828H93.5862V102.207ZM102.207 102.207H110.828V110.828H102.207V102.207ZM110.828 102.207H119.448V110.828H110.828V102.207ZM119.448 102.207H128.069V110.828H119.448V102.207ZM136.69 102.207H145.31V110.828H136.69V102.207ZM145.31 102.207H153.931V110.828H145.31V102.207ZM153.931 102.207H162.552V110.828H153.931V102.207ZM171.172 102.207H179.793V110.828H171.172V102.207ZM188.414 102.207H197.034V110.828H188.414V102.207ZM197.034 102.207H205.655V110.828H197.034V102.207ZM205.655 102.207H214.276V110.828H205.655V102.207ZM214.276 102.207H222.897V110.828H214.276V102.207ZM222.897 102.207H231.517V110.828H222.897V102.207ZM240.138 102.207H248.759V110.828H240.138V102.207ZM16 110.828H24.6207V119.448H16V110.828ZM24.6207 110.828H33.2414V119.448H24.6207V110.828ZM33.2414 110.828H41.8621V119.448H33.2414V110.828ZM50.4828 110.828H59.1034V119.448H50.4828V110.828ZM59.1034 110.828H67.7241V119.448H59.1034V110.828ZM76.3448 110.828H84.9655V119.448H76.3448V110.828ZM93.5862 110.828H102.207V119.448H93.5862V110.828ZM110.828 110.828H119.448V119.448H110.828V110.828ZM119.448 110.828H128.069V119.448H119.448V110.828ZM136.69 110.828H145.31V119.448H136.69V110.828ZM145.31 110.828H153.931V119.448H145.31V110.828ZM162.552 110.828H171.172V119.448H162.552V110.828ZM171.172 110.828H179.793V119.448H171.172V110.828ZM188.414 110.828H197.034V119.448H188.414V110.828ZM222.897 110.828H231.517V119.448H222.897V110.828ZM231.517 110.828H240.138V119.448H231.517V110.828ZM257.379 110.828H266V119.448H257.379V110.828ZM41.8621 119.448H50.4828V128.069H41.8621V119.448ZM50.4828 119.448H59.1034V128.069H50.4828V119.448ZM67.7241 119.448H76.3448V128.069H67.7241V119.448ZM93.5862 119.448H102.207V128.069H93.5862V119.448ZM102.207 119.448H110.828V128.069H102.207V119.448ZM119.448 119.448H128.069V128.069H119.448V119.448ZM136.69 119.448H145.31V128.069H136.69V119.448ZM188.414 119.448H197.034V128.069H188.414V119.448ZM197.034 119.448H205.655V128.069H197.034V119.448ZM205.655 119.448H214.276V128.069H205.655V119.448ZM248.759 119.448H257.379V128.069H248.759V119.448ZM16 128.069H24.6207V136.69H16V128.069ZM24.6207 128.069H33.2414V136.69H24.6207V128.069ZM41.8621 128.069H50.4828V136.69H41.8621V128.069ZM50.4828 128.069H59.1034V136.69H50.4828V128.069ZM119.448 128.069H128.069V136.69H119.448V128.069ZM136.69 128.069H145.31V136.69H136.69V128.069ZM145.31 128.069H153.931V136.69H145.31V128.069ZM153.931 128.069H162.552V136.69H153.931V128.069ZM162.552 128.069H171.172V136.69H162.552V128.069ZM171.172 128.069H179.793V136.69H171.172V128.069ZM205.655 128.069H214.276V136.69H205.655V128.069ZM222.897 128.069H231.517V136.69H222.897V128.069ZM240.138 128.069H248.759V136.69H240.138V128.069ZM248.759 128.069H257.379V136.69H248.759V128.069ZM257.379 128.069H266V136.69H257.379V128.069ZM41.8621 136.69H50.4828V145.31H41.8621V136.69ZM67.7241 136.69H76.3448V145.31H67.7241V136.69ZM76.3448 136.69H84.9655V145.31H76.3448V136.69ZM84.9655 136.69H93.5862V145.31H84.9655V136.69ZM102.207 136.69H110.828V145.31H102.207V136.69ZM110.828 136.69H119.448V145.31H110.828V136.69ZM119.448 136.69H128.069V145.31H119.448V136.69ZM171.172 136.69H179.793V145.31H171.172V136.69ZM179.793 136.69H188.414V145.31H179.793V136.69ZM197.034 136.69H205.655V145.31H197.034V136.69ZM214.276 136.69H222.897V145.31H214.276V136.69ZM231.517 136.69H240.138V145.31H231.517V136.69ZM257.379 136.69H266V145.31H257.379V136.69ZM16 145.31H24.6207V153.931H16V145.31ZM41.8621 145.31H50.4828V153.931H41.8621V145.31ZM110.828 145.31H119.448V153.931H110.828V145.31ZM119.448 145.31H128.069V153.931H119.448V145.31ZM136.69 145.31H145.31V153.931H136.69V145.31ZM145.31 145.31H153.931V153.931H145.31V145.31ZM153.931 145.31H162.552V153.931H153.931V145.31ZM197.034 145.31H205.655V153.931H197.034V145.31ZM205.655 145.31H214.276V153.931H205.655V145.31ZM222.897 145.31H231.517V153.931H222.897V145.31ZM231.517 145.31H240.138V153.931H231.517V145.31ZM240.138 145.31H248.759V153.931H240.138V145.31ZM16 153.931H24.6207V162.552H16V153.931ZM24.6207 153.931H33.2414V162.552H24.6207V153.931ZM41.8621 153.931H50.4828V162.552H41.8621V153.931ZM50.4828 153.931H59.1034V162.552H50.4828V153.931ZM59.1034 153.931H67.7241V162.552H59.1034V153.931ZM67.7241 153.931H76.3448V162.552H67.7241V153.931ZM76.3448 153.931H84.9655V162.552H76.3448V153.931ZM84.9655 153.931H93.5862V162.552H84.9655V153.931ZM93.5862 153.931H102.207V162.552H93.5862V153.931ZM128.069 153.931H136.69V162.552H128.069V153.931ZM188.414 153.931H197.034V162.552H188.414V153.931ZM231.517 153.931H240.138V162.552H231.517V153.931ZM257.379 153.931H266V162.552H257.379V153.931ZM16 162.552H24.6207V171.172H16V162.552ZM24.6207 162.552H33.2414V171.172H24.6207V162.552ZM33.2414 162.552H41.8621V171.172H33.2414V162.552ZM41.8621 162.552H50.4828V171.172H41.8621V162.552ZM50.4828 162.552H59.1034V171.172H50.4828V162.552ZM93.5862 162.552H102.207V171.172H93.5862V162.552ZM128.069 162.552H136.69V171.172H128.069V162.552ZM136.69 162.552H145.31V171.172H136.69V162.552ZM153.931 162.552H162.552V171.172H153.931V162.552ZM162.552 162.552H171.172V171.172H162.552V162.552ZM171.172 162.552H179.793V171.172H171.172V162.552ZM179.793 162.552H188.414V171.172H179.793V162.552ZM188.414 162.552H197.034V171.172H188.414V162.552ZM197.034 162.552H205.655V171.172H197.034V162.552ZM222.897 162.552H231.517V171.172H222.897V162.552ZM240.138 162.552H248.759V171.172H240.138V162.552ZM16 171.172H24.6207V179.793H16V171.172ZM24.6207 171.172H33.2414V179.793H24.6207V171.172ZM33.2414 171.172H41.8621V179.793H33.2414V171.172ZM59.1034 171.172H67.7241V179.793H59.1034V171.172ZM67.7241 171.172H76.3448V179.793H67.7241V171.172ZM76.3448 171.172H84.9655V179.793H76.3448V171.172ZM93.5862 171.172H102.207V179.793H93.5862V171.172ZM102.207 171.172H110.828V179.793H102.207V171.172ZM110.828 171.172H119.448V179.793H110.828V171.172ZM145.31 171.172H153.931V179.793H145.31V171.172ZM162.552 171.172H171.172V179.793H162.552V171.172ZM179.793 171.172H188.414V179.793H179.793V171.172ZM240.138 171.172H248.759V179.793H240.138V171.172ZM257.379 171.172H266V179.793H257.379V171.172ZM16 179.793H24.6207V188.414H16V179.793ZM24.6207 179.793H33.2414V188.414H24.6207V179.793ZM33.2414 179.793H41.8621V188.414H33.2414V179.793ZM41.8621 179.793H50.4828V188.414H41.8621V179.793ZM50.4828 179.793H59.1034V188.414H50.4828V179.793ZM102.207 179.793H110.828V188.414H102.207V179.793ZM119.448 179.793H128.069V188.414H119.448V179.793ZM128.069 179.793H136.69V188.414H128.069V179.793ZM145.31 179.793H153.931V188.414H145.31V179.793ZM153.931 179.793H162.552V188.414H153.931V179.793ZM171.172 179.793H179.793V188.414H171.172V179.793ZM197.034 179.793H205.655V188.414H197.034V179.793ZM205.655 179.793H214.276V188.414H205.655V179.793ZM214.276 179.793H222.897V188.414H214.276V179.793ZM240.138 179.793H248.759V188.414H240.138V179.793ZM16 188.414H24.6207V197.034H16V188.414ZM24.6207 188.414H33.2414V197.034H24.6207V188.414ZM41.8621 188.414H50.4828V197.034H41.8621V188.414ZM50.4828 188.414H59.1034V197.034H50.4828V188.414ZM59.1034 188.414H67.7241V197.034H59.1034V188.414ZM67.7241 188.414H76.3448V197.034H67.7241V188.414ZM76.3448 188.414H84.9655V197.034H76.3448V188.414ZM84.9655 188.414H93.5862V197.034H84.9655V188.414ZM102.207 188.414H110.828V197.034H102.207V188.414ZM110.828 188.414H119.448V197.034H110.828V188.414ZM119.448 188.414H128.069V197.034H119.448V188.414ZM136.69 188.414H145.31V197.034H136.69V188.414ZM153.931 188.414H162.552V197.034H153.931V188.414ZM162.552 188.414H171.172V197.034H162.552V188.414ZM188.414 188.414H197.034V197.034H188.414V188.414ZM197.034 188.414H205.655V197.034H197.034V188.414ZM205.655 188.414H214.276V197.034H205.655V188.414ZM214.276 188.414H222.897V197.034H214.276V188.414ZM222.897 188.414H231.517V197.034H222.897V188.414ZM240.138 188.414H248.759V197.034H240.138V188.414ZM248.759 188.414H257.379V197.034H248.759V188.414ZM257.379 188.414H266V197.034H257.379V188.414ZM84.9655 197.034H93.5862V205.655H84.9655V197.034ZM110.828 197.034H119.448V205.655H110.828V197.034ZM119.448 197.034H128.069V205.655H119.448V197.034ZM128.069 197.034H136.69V205.655H128.069V197.034ZM145.31 197.034H153.931V205.655H145.31V197.034ZM171.172 197.034H179.793V205.655H171.172V197.034ZM179.793 197.034H188.414V205.655H179.793V197.034ZM188.414 197.034H197.034V205.655H188.414V197.034ZM222.897 197.034H231.517V205.655H222.897V197.034ZM231.517 197.034H240.138V205.655H231.517V197.034ZM240.138 197.034H248.759V205.655H240.138V197.034ZM16 205.655H24.6207V214.276H16V205.655ZM24.6207 205.655H33.2414V214.276H24.6207V205.655ZM33.2414 205.655H41.8621V214.276H33.2414V205.655ZM41.8621 205.655H50.4828V214.276H41.8621V205.655ZM50.4828 205.655H59.1034V214.276H50.4828V205.655ZM59.1034 205.655H67.7241V214.276H59.1034V205.655ZM67.7241 205.655H76.3448V214.276H67.7241V205.655ZM102.207 205.655H110.828V214.276H102.207V205.655ZM119.448 205.655H128.069V214.276H119.448V205.655ZM136.69 205.655H145.31V214.276H136.69V205.655ZM145.31 205.655H153.931V214.276H145.31V205.655ZM153.931 205.655H162.552V214.276H153.931V205.655ZM162.552 205.655H171.172V214.276H162.552V205.655ZM179.793 205.655H188.414V214.276H179.793V205.655ZM188.414 205.655H197.034V214.276H188.414V205.655ZM205.655 205.655H214.276V214.276H205.655V205.655ZM222.897 205.655H231.517V214.276H222.897V205.655ZM240.138 205.655H248.759V214.276H240.138V205.655ZM248.759 205.655H257.379V214.276H248.759V205.655ZM16 214.276H24.6207V222.897H16V214.276ZM67.7241 214.276H76.3448V222.897H67.7241V214.276ZM84.9655 214.276H93.5862V222.897H84.9655V214.276ZM93.5862 214.276H102.207V222.897H93.5862V214.276ZM110.828 214.276H119.448V222.897H110.828V214.276ZM128.069 214.276H136.69V222.897H128.069V214.276ZM153.931 214.276H162.552V222.897H153.931V214.276ZM162.552 214.276H171.172V222.897H162.552V214.276ZM179.793 214.276H188.414V222.897H179.793V214.276ZM188.414 214.276H197.034V222.897H188.414V214.276ZM222.897 214.276H231.517V222.897H222.897V214.276ZM231.517 214.276H240.138V222.897H231.517V214.276ZM248.759 214.276H257.379V222.897H248.759V214.276ZM257.379 214.276H266V222.897H257.379V214.276ZM16 222.897H24.6207V231.517H16V222.897ZM33.2414 222.897H41.8621V231.517H33.2414V222.897ZM41.8621 222.897H50.4828V231.517H41.8621V222.897ZM50.4828 222.897H59.1034V231.517H50.4828V222.897ZM67.7241 222.897H76.3448V231.517H67.7241V222.897ZM84.9655 222.897H93.5862V231.517H84.9655V222.897ZM93.5862 222.897H102.207V231.517H93.5862V222.897ZM102.207 222.897H110.828V231.517H102.207V222.897ZM119.448 222.897H128.069V231.517H119.448V222.897ZM128.069 222.897H136.69V231.517H128.069V222.897ZM136.69 222.897H145.31V231.517H136.69V222.897ZM153.931 222.897H162.552V231.517H153.931V222.897ZM179.793 222.897H188.414V231.517H179.793V222.897ZM188.414 222.897H197.034V231.517H188.414V222.897ZM197.034 222.897H205.655V231.517H197.034V222.897ZM205.655 222.897H214.276V231.517H205.655V222.897ZM214.276 222.897H222.897V231.517H214.276V222.897ZM222.897 222.897H231.517V231.517H222.897V222.897ZM257.379 222.897H266V231.517H257.379V222.897ZM16 231.517H24.6207V240.138H16V231.517ZM33.2414 231.517H41.8621V240.138H33.2414V231.517ZM41.8621 231.517H50.4828V240.138H41.8621V231.517ZM50.4828 231.517H59.1034V240.138H50.4828V231.517ZM67.7241 231.517H76.3448V240.138H67.7241V231.517ZM84.9655 231.517H93.5862V240.138H84.9655V231.517ZM102.207 231.517H110.828V240.138H102.207V231.517ZM110.828 231.517H119.448V240.138H110.828V231.517ZM128.069 231.517H136.69V240.138H128.069V231.517ZM145.31 231.517H153.931V240.138H145.31V231.517ZM214.276 231.517H222.897V240.138H214.276V231.517ZM231.517 231.517H240.138V240.138H231.517V231.517ZM257.379 231.517H266V240.138H257.379V231.517ZM16 240.138H24.6207V248.759H16V240.138ZM33.2414 240.138H41.8621V248.759H33.2414V240.138ZM41.8621 240.138H50.4828V248.759H41.8621V240.138ZM50.4828 240.138H59.1034V248.759H50.4828V240.138ZM67.7241 240.138H76.3448V248.759H67.7241V240.138ZM93.5862 240.138H102.207V248.759H93.5862V240.138ZM110.828 240.138H119.448V248.759H110.828V240.138ZM136.69 240.138H145.31V248.759H136.69V240.138ZM145.31 240.138H153.931V248.759H145.31V240.138ZM188.414 240.138H197.034V248.759H188.414V240.138ZM197.034 240.138H205.655V248.759H197.034V240.138ZM214.276 240.138H222.897V248.759H214.276V240.138ZM222.897 240.138H231.517V248.759H222.897V240.138ZM231.517 240.138H240.138V248.759H231.517V240.138ZM240.138 240.138H248.759V248.759H240.138V240.138ZM248.759 240.138H257.379V248.759H248.759V240.138ZM257.379 240.138H266V248.759H257.379V240.138ZM16 248.759H24.6207V257.379H16V248.759ZM67.7241 248.759H76.3448V257.379H67.7241V248.759ZM84.9655 248.759H93.5862V257.379H84.9655V248.759ZM93.5862 248.759H102.207V257.379H93.5862V248.759ZM119.448 248.759H128.069V257.379H119.448V248.759ZM128.069 248.759H136.69V257.379H128.069V248.759ZM145.31 248.759H153.931V257.379H145.31V248.759ZM153.931 248.759H162.552V257.379H153.931V248.759ZM205.655 248.759H214.276V257.379H205.655V248.759ZM222.897 248.759H231.517V257.379H222.897V248.759ZM240.138 248.759H248.759V257.379H240.138V248.759ZM257.379 248.759H266V257.379H257.379V248.759ZM16 257.379H24.6207V266H16V257.379ZM24.6207 257.379H33.2414V266H24.6207V257.379ZM33.2414 257.379H41.8621V266H33.2414V257.379ZM41.8621 257.379H50.4828V266H41.8621V257.379ZM50.4828 257.379H59.1034V266H50.4828V257.379ZM59.1034 257.379H67.7241V266H59.1034V257.379ZM67.7241 257.379H76.3448V266H67.7241V257.379ZM102.207 257.379H110.828V266H102.207V257.379ZM119.448 257.379H128.069V266H119.448V257.379ZM136.69 257.379H145.31V266H136.69V257.379ZM145.31 257.379H153.931V266H145.31V257.379ZM153.931 257.379H162.552V266H153.931V257.379ZM179.793 257.379H188.414V266H179.793V257.379ZM188.414 257.379H197.034V266H188.414V257.379ZM197.034 257.379H205.655V266H197.034V257.379ZM214.276 257.379H222.897V266H214.276V257.379ZM222.897 257.379H231.517V266H222.897V257.379Z" fill="#FF544F"/>
</svg>
