<svg width="77" height="95" viewBox="0 0 77 95" fill="none" xmlns="http://www.w3.org/2000/svg">
<path d="M76.5 70.6C76.5 66.4 73.1 62.9 68.8 62.9C67.2 62.9 65.7 63.4 64.5 64.2C63.4 61.5 60.6 59.5 57.4 59.5C55.8 59.5 54.3 60 53.1 60.8C51.9 58 49.2 56 46 56C44.6 56 43.4 56.4 42.3 57V50.4C48.2 47.6 52.3 41.5 52.3 34.5C52.3 24.7 44.3 16.7 34.4 16.7C24.6 16.7 16.6 24.7 16.6 34.5C16.6 41.6 20.8 47.7 26.8 50.6V78.7L21.7 73.5C19.1 70.9 14.9 70.5 11.9 72.6C10.1 73.8 8.90001 75.8 8.60001 77.9C8.30001 80.1 8.90001 82.3 10.3 84L19 94.3C19.4 94.8 19.9 95 20.5 95C20.9 95 21.4 94.8 21.8 94.5C22.6 93.8 22.7 92.6 22 91.7L13.3 81.4C12.6 80.6 12.3 79.5 12.5 78.4C12.7 77.3 13.2 76.4 14.1 75.8C15.6 74.8 17.6 75 18.9 76.3L25.2 82.5C26.1 83.4 27.6 83.7 28.8 83.2C30 82.7 30.8 81.5 30.8 80.1V39.7C30.8 37.6 32.5 36 34.5 36C35.5 35.9 36.4 36.4 37.1 37.1C37.8 37.8 38.2 38.7 38.2 39.7V67.5C38.2 68.6 39.1 69.5 40.2 69.5C41.3 69.5 42.2 68.6 42.2 67.5V63.7C42.2 61.6 43.9 60 45.9 60C48 60 49.6 61.7 49.6 63.7V70.9C49.6 72 50.5 72.9 51.6 72.9C52.7 72.9 53.6 72 53.6 70.9V67.1C53.6 65 55.3 63.4 57.3 63.4C59.4 63.4 61 65.1 61 67.1V74.3C61 75.4 61.9 76.3 63 76.3C64.1 76.3 65 75.4 65 74.3V70.8C65 70.7 65 70.6 65 70.6C65 68.6 66.7 66.9 68.7 66.9C70.8 66.9 72.4 68.6 72.4 70.6V93C72.4 94.1 73.3 95 74.4 95C75.5 95 76.4 94.1 76.4 93L76.5 70.6ZM34.5 32C30.3 32 26.8 35.5 26.8 39.7V46C23 43.5 20.5 39.2 20.5 34.4C20.5 26.7 26.7 20.5 34.4 20.5C42.1 20.5 48.3 26.7 48.3 34.4C48.3 39.2 45.9 43.4 42.2 45.9V39.7C42.2 37.6 41.4 35.7 39.9 34.3C38.5 32.8 36.6 32 34.5 32Z" fill="#FF544F"/>
<path d="M34.5 9.8C35.6 9.8 36.5 8.9 36.5 7.8V2C36.5 0.9 35.6 0 34.5 0C33.4 0 32.5 0.9 32.5 2V7.9C32.5 8.9 33.4 9.8 34.5 9.8Z" fill="#FF544F"/>
<path d="M14.3 17.1C14.7 17.5 15.2 17.7 15.7 17.7C16.2 17.7 16.7 17.5 17.1 17.1C17.9 16.3 17.9 15.1 17.1 14.3L13 10.2C12.2 9.40001 11 9.40001 10.2 10.2C9.39998 11 9.39998 12.2 10.2 13L14.3 17.1Z" fill="#FF544F"/>
<path d="M9.9 34.5C9.9 33.4 9 32.5 7.9 32.5H2C0.9 32.5 0 33.4 0 34.5C0 35.6 0.9 36.5 2 36.5H7.9C9 36.5 9.9 35.6 9.9 34.5Z" fill="#FF544F"/>
<path d="M61.2 36.3H67.1C68.2 36.3 69.1 35.4 69.1 34.3C69.1 33.2 68.2 32.3 67.1 32.3H61.2C60.1 32.3 59.2 33.2 59.2 34.3C59.2 35.5 60.1 36.3 61.2 36.3Z" fill="#FF544F"/>
<path d="M53.3001 17.5C53.8001 17.5 54.3001 17.3 54.7001 16.9L58.8001 12.8C59.6001 12 59.6001 10.8 58.8001 9.99999C58.0001 9.19999 56.8 9.19999 56 9.99999L51.9 14.1C51.1 14.9 51.1 16.1 51.9 16.9C52.3 17.4 52.8001 17.5 53.3001 17.5Z" fill="#FF544F"/>
</svg>
