<svg width="100" height="100" viewBox="0 0 100 100" fill="none" xmlns="http://www.w3.org/2000/svg">
<path fill-rule="evenodd" clip-rule="evenodd" d="M59.541 66.2516C45.0415 77.4566 24.1274 76.4093 10.8277 63.1096C-3.60924 48.672 -3.60924 25.2646 10.8277 10.8277C25.2647 -3.60923 48.6729 -3.60923 63.1098 10.8277C76.4095 24.1274 77.4569 45.0413 66.2525 59.5402L73.3528 66.6404L78.407 65.635L99.0654 86.2933C100.705 87.9333 100.131 91.1911 97.7896 93.5321L93.5331 97.7893C91.1914 100.131 87.9342 100.705 86.2943 99.0644L65.6359 78.4067L66.6406 73.3519L59.541 66.2516ZM53.2058 53.2062C62.173 44.2377 62.173 29.6996 53.2058 20.7324C44.2378 11.7645 29.6997 11.7645 20.7324 20.7324C11.7645 29.6996 11.7645 44.2377 20.7324 53.2062C29.6997 62.1728 44.2378 62.1728 53.2058 53.2062Z" fill="white"/>
</svg>
